<!DOCTYPE svg PUBLIC "-//W3C//DTD SVG 1.1//EN" "http://www.w3.org/Graphics/SVG/1.1/DTD/svg11.dtd">
<!-- Uploaded to: SVG Repo, www.svgrepo.com, Transformed by: SVG Repo Mixer Tools -->
<svg width="800px" height="800px" viewBox="0 0 24 24" id="Layer_1" data-name="Layer 1" xmlns="http://www.w3.org/2000/svg" fill="#828282" stroke="#828282">
<g id="SVGRepo_bgCarrier" stroke-width="0"/>
<g id="SVGRepo_tracerCarrier" stroke-linecap="round" stroke-linejoin="round"/>
<g id="SVGRepo_iconCarrier">
<defs>
<style>.cls-1{fill:none;stroke:#828282;stroke-miterlimit:10;stroke-width:1.91px;}</style>
</defs>
<path class="cls-1" d="M21.57,22.5H5.34a1.91,1.91,0,0,1-1.91-1.91h0a1.92,1.92,0,0,1,1.91-1.91H21.57"/>
<path class="cls-1" d="M18.7,22.5H5.34a1.91,1.91,0,0,1-1.91-1.91V3.41A1.91,1.91,0,0,1,5.34,1.5H20.61V18.68H18.7Z"/>
<polygon class="cls-1" points="13.93 11.19 13.93 8.99 12.02 7.89 10.11 8.99 10.11 11.19 12.02 12.29 13.93 11.19"/>
<line class="cls-1" x1="10.11" y1="11.05" x2="7.25" y2="12.66"/>
<polyline class="cls-1" points="13.93 8.63 15.84 7.52 15.84 5.32"/>
<line class="cls-1" x1="12.02" y1="14.86" x2="12.02" y2="12"/>
</g>
</svg>