<!DOCTYPE svg PUBLIC "-//W3C//DTD SVG 1.1//EN" "http://www.w3.org/Graphics/SVG/1.1/DTD/svg11.dtd">
<!-- Uploaded to: SVG Repo, www.svgrepo.com, Transformed by: SVG Repo Mixer Tools -->
<svg fill="#828282" width="800px" height="800px" viewBox="0 0 32 32" version="1.1" xmlns="http://www.w3.org/2000/svg" stroke="#828282">
<g id="SVGRepo_bgCarrier" stroke-width="0"/>
<g id="SVGRepo_tracerCarrier" stroke-linecap="round" stroke-linejoin="round"/>
<g id="SVGRepo_iconCarrier"> <title>temperature-sun</title> <path d="M9.25 21.001v-15.001c0-0.69-0.56-1.25-1.25-1.25s-1.25 0.56-1.25 1.25v0 15.001c-1.184 0.503-2 1.656-2 3 0 1.795 1.455 3.25 3.25 3.25s3.25-1.455 3.25-3.25c0-1.344-0.816-2.497-1.979-2.992l-0.021-0.008zM31.25 16c0-0.451-0.238-0.846-0.596-1.066l-0.005-0.003-4.088-2.477 1.139-4.642c0.023-0.089 0.036-0.192 0.036-0.298 0-0.691-0.56-1.25-1.25-1.25-0.106 0-0.209 0.013-0.308 0.038l0.009-0.002-4.641 1.14-2.476-4.088c-0.223-0.364-0.618-0.603-1.069-0.603s-0.846 0.239-1.066 0.597l-0.003 0.005-2.477 4.088-1.204-0.296v-1.137c0-6.904-10.5-6.904-10.5 0v13.048c-1.222 1.292-1.974 3.040-1.974 4.964 0 3.993 3.237 7.23 7.23 7.23 3.443 0 6.324-2.407 7.052-5.63l0.009-0.048 1.863 3.077c0.223 0.363 0.618 0.602 1.069 0.602s0.846-0.238 1.066-0.596l0.003-0.005 2.477-4.088 4.643 1.139c0.089 0.023 0.192 0.036 0.298 0.036 0.69 0 1.25-0.56 1.25-1.25 0-0.106-0.013-0.208-0.038-0.306l0.002 0.009-1.139-4.643 4.088-2.476c0.363-0.223 0.601-0.618 0.601-1.069v0zM24.42 10.685c-0.338-0.406-0.701-0.767-1.095-1.093l-0.014-0.011 1.469-0.36zM15.783 21.414c-0.558-0.237-1.039-0.532-1.469-0.887l0.010 0.008c-0.311-0.563-0.668-1.048-1.078-1.482l0.003 0.004v-6.414c1.072-1.505 2.811-2.475 4.776-2.475 3.229 0 5.847 2.618 5.847 5.847s-2.618 5.847-5.847 5.847c-0.809 0-1.581-0.165-2.282-0.462l0.038 0.014zM18.783 7.705c-0.241-0.025-0.521-0.039-0.805-0.039-0.267 0-0.531 0.013-0.792 0.037l0.033-0.003 0.78-1.288zM8 28.75c-2.623 0-4.75-2.127-4.75-4.75 0-1.405 0.61-2.667 1.58-3.537l0.004-0.004c0.009-0.008 0.013-0.020 0.022-0.029 0.059-0.063 0.112-0.133 0.157-0.208l0.003-0.006c0.043-0.053 0.084-0.113 0.119-0.175l0.003-0.006c0.020-0.055 0.037-0.122 0.049-0.19l0.001-0.007c0.027-0.081 0.047-0.175 0.056-0.272l0-0.005 0.007-0.033v-13.52c-0.001-0.031-0.002-0.068-0.002-0.105 0-1.52 1.232-2.752 2.752-2.752s2.752 1.232 2.752 2.752c0 0.037-0.001 0.074-0.002 0.11l0-0.005v13.52l0.007 0.033c0.009 0.102 0.029 0.196 0.059 0.285l-0.003-0.009c0.013 0.076 0.030 0.142 0.052 0.206l-0.003-0.009c0.039 0.069 0.079 0.128 0.124 0.184l-0.002-0.002c0.048 0.081 0.101 0.151 0.16 0.215l-0.001-0.001c0.009 0.009 0.012 0.021 0.022 0.029 0.974 0.874 1.584 2.136 1.584 3.541 0 2.623-2.127 4.75-4.75 4.75-0 0-0 0-0 0v0zM17.208 24.28c0.268 0.026 0.535 0.078 0.802 0.078 0.259 0 0.514-0.033 0.77-0.057l-0.779 1.287zM23.338 22.425c0.402-0.326 0.76-0.674 1.085-1.051l0.009-0.011 0.348 1.416zM26.305 16.776c0.023-0.232 0.037-0.502 0.037-0.775s-0.013-0.545-0.040-0.812l0.003 0.034 1.283 0.777z"/> </g>
</svg>